#!OML:ASF F:\VICON\USERDATA\INSTALL\Justin_Nancy\Justin_Nancy.ASF
:FULLY-SPECIFIED
:DEGREES
63
root 0.343909 17.4108 -30.7598 3.17103 -0.116528 -1.40198
lowerback 5.62059 -0.458946 -1.39027
upperback -0.742175 -0.571474 3.58332
thorax -3.87464 -0.214159 4.55568
lowerneck -6.07999 -2.46931 -11.2126
upperneck 20.0784 -3.03629 5.84786
head 7.4176 -1.78851 3.54924
rclavicle 8.99501e-015 -3.89618e-014
rhumerus -35.4405 -5.34736 -79.9205
rradius 28.479
rwrist 8.26318
rhand -14.8098 10.4631
rfingers 7.12502
rthumb 11.3482 -19.2099
lclavicle 8.99501e-015 -3.89618e-014
lhumerus -35.074 17.7956 81.2211
lradius 26.2527
lwrist -10.8011
lhand -14.6317 23.3333
lfingers 7.12502
lthumb 11.5199 52.9967
rfemur -6.54639 3.47005 28.4758
rtibia 25.5949
rfoot -17.4471 -10.027
rtoes 9.25672
lfemur -30.2138 -4.31538 -17.3586
ltibia 56.0903
lfoot -12.6031 0.207784
ltoes -8.40398
64
root 0.33663 17.4175 -30.7165 3.26842 -0.0602659 -1.48459
lowerback 5.69646 -0.378869 -1.13883
upperback -0.691756 -0.450504 3.50254
thorax -3.87789 -0.160857 4.31765
lowerneck -6.58442 -2.61201 -11.1346
upperneck 20.2344 -3.20427 5.92294
head 7.57407 -1.85158 3.54531
rclavicle 1.55052e-014 -8.74653e-015
rhumerus -35.1072 -5.97798 -79.7455
rradius 28.1604
rwrist 9.24198
rhand -14.5444 10.485
rfingers 7.12502
rthumb 11.6042 -19.1737
lclavicle 1.55052e-014 -8.74653e-015
lhumerus -34.994 17.6393 81.1288
lradius 26.3639
lwrist -10.3513
lhand -14.4149 23.4148
lfingers 7.12502
lthumb 11.7291 53.0665
rfemur -6.43765 3.63655 28.6221
rtibia 25.4146
rfoot -17.4208 -10.2183
rtoes 10.2944
lfemur -30.7765 -4.31301 -17.2488
ltibia 55.8939
lfoot -12.7878 0.254433
ltoes -8.02308
65
root 0.331732 17.4228 -30.6704 3.25387 -0.0689982 -1.51307
lowerback 5.70785 -0.304997 -0.954668
upperback -0.582547 -0.344493 3.41864
thorax -3.78088 -0.115645 4.11416
lowerneck -6.9383 -2.63786 -10.9694
upperneck 20.1816 -3.22596 5.94538
head 7.61883 -1.84115 3.51995
rclavicle -4.12478e-015 1.27222e-014
rhumerus -34.9463 -6.21451 -79.8146
rradius 27.9263
rwrist 8.69711
rhand -14.9242 10.3137
rfingers 7.12502
rthumb 11.2379 -19.3653
lclavicle -4.12478e-015 1.27222e-014
lhumerus -34.9712 17.7189 80.9162
lradius 26.3605
lwrist -10.1379
lhand -14.2493 23.0204
lfingers 7.12502
lthumb 11.8887 52.6629
rfemur -6.18901 3.84214 28.6958
rtibia 25.2492
rfoot -17.5609 -10.2808
rtoes 11.745
lfemur -31.1617 -4.30278 -17.2256
ltibia 55.5202
lfoot -12.9008 0.617113
ltoes -7.22458
66
root 0.326917 17.4218 -30.6283 3.30943 -0.0761532 -1.52189
lowerback 5.80248 -0.285663 -0.822048
upperback -0.586966 -0.310494 3.36084
thorax -3.84226 -0.101219 3.97673
lowerneck -7.3018 -2.502 -10.8186
upperneck 20.3215 -3.02596 5.96119
head 7.70857 -1.72989 3.51807
rclavicle 9.54166e-015 -1.74931e-014
rhumerus -34.9724 -6.29476 -79.8727
rradius 28.0162
rwrist 8.428
rhand -14.851 9.75106
rfingers 7.12502
rthumb 11.3085 -19.9241
lclavicle 9.54166e-015 -1.74931e-014
lhumerus -34.9167 18.3118 80.4933
lradius 25.946
lwrist -10.6506
lhand -14.2989 22.4458
lfingers 7.12502
lthumb 11.8409 52.091
rfemur -5.99135 3.87883 28.7376
rtibia 25.0888
rfoot -17.6488 -10.2991
rtoes 11.7635
lfemur -31.6138 -4.3165 -17.2092
ltibia 54.983
lfoot -12.9463 1.14122
ltoes -6.79968
67
root 0.319189 17.4213 -30.5865 3.40931 -0.0591925 -1.44227
lowerback 6.08289 -0.231737 -0.765369
upperback -0.613686 -0.234972 3.25648
thorax -4.03424 -0.0631984 3.8326
lowerneck -8.05466 -2.51599 -10.7845
upperneck 20.7704 -2.99677 6.0501
head 7.99139 -1.70143 3.54785
rclavicle 2.33572e-015 -1.90833e-014
rhumerus -34.8787 -6.78742 -79.7274
rradius 27.7558
rwrist 9.21558
rhand -15.1682 10.8024
rfingers 7.12502
rthumb 11.0025 -18.8893
lclavicle 2.33572e-015 -1.90833e-014
lhumerus -34.7525 18.7452 80.1736
lradius 25.5853
lwrist -11.1342
lhand -14.4309 22.4784
lfingers 7.12502
lthumb 11.7136 52.1309
rfemur -5.84967 3.95229 28.7046
rtibia 24.93
rfoot -17.5629 -10.3418
rtoes 12.8191
lfemur -32.136 -4.40548 -17.2732
ltibia 54.2994
lfoot -12.7555 1.8863
ltoes -6.45433
68
root 0.315519 17.4193 -30.5354 3.43926 -0.148151 -1.5142
lowerback 6.1823 -0.0662203 -0.57978
upperback -0.542381 -0.00387364 3.17678
thorax -4.03257 0.0459987 3.6223
lowerneck -8.48564 -2.72973 -10.7185
upperneck 20.9587 -3.27399 6.10919
head 8.15822 -1.81844 3.53006
rclavicle 1.03368e-014 0
rhumerus -34.8107 -7.31573 -79.6127
rradius 27.7701
rwrist 9.45483
rhand -15.6694 11.5522
rfingers 7.12502
rthumb 10.5191 -18.1646
lclavicle 1.03368e-014 0
lhumerus -34.6238 18.6139 80.1276
lradius 25.5374
lwrist -11.2495
lhand -14.3761 22.9687
lfingers 7.12502
lthumb 11.7664 52.6182
rfemur -5.58383 4.11197 28.8206
rtibia 24.7504
rfoot -17.6159 -10.3387
rtoes 13.7022
lfemur -32.5625 -4.40508 -17.1784
ltibia 53.5328
lfoot -12.2021 2.8343
ltoes -5.31404
69
root 0.31157 17.4151 -30.4885 3.47491 -0.170324 -1.66064
lowerback 6.03793 0.0410336 -0.405341
upperback -0.468346 0.148508 3.17428
thorax -3.88394 0.115737 3.50448
lowerneck -8.20887 -2.91855 -10.7043
upperneck 20.7166 -3.56227 6.11338
head 8.05357 -1.95392 3.49864
rclavicle -4.77083e-015 -8.74653e-015
rhumerus -34.7973 -7.62615 -79.5418
rradius 27.8531
rwrist 9.45575
rhand -14.7049 9.25734
rfingers 7.12502
rthumb 11.4494 -20.41
lclavicle -4.77083e-015 -8.74653e-015
lhumerus -34.6728 18.5102 80.0583
lradius 25.6958
lwrist -11.4625
lhand -13.9331 23.1915
lfingers 7.12502
lthumb 12.1936 52.8161
rfemur -5.32717 4.30433 29.0543
rtibia 24.531
rfoot -17.6232 -10.6649
rtoes 13.1989
lfemur -32.9685 -4.35136 -17.0024
ltibia 52.7378
lfoot -11.8671 3.45193
ltoes -5.33375
